<?xml version="1.0" encoding="utf-8"?>
<!-- Generator: Adobe Illustrator 22.1.0, SVG Export Plug-In . SVG Version: 6.00 Build 0)  -->
<svg version="1.1" id="Layer_1" xmlns="http://www.w3.org/2000/svg" xmlns:xlink="http://www.w3.org/1999/xlink" x="0px" y="0px"
	 viewBox="0 0 360 56" style="enable-background:new 0 0 360 56;" xml:space="preserve">
<style type="text/css">
	.st0{fill:#F49C1E;}
	.st1{opacity:8.000000e-02;fill:url(#SVGID_1_);}
	.st2{fill:#034EA2;}
	.st3{fill:#FFFFFF;}
</style>
<g>
	<rect x="0" y="0" class="st0" width="360" height="56"/>
	<linearGradient id="SVGID_1_" gradientUnits="userSpaceOnUse" x1="179.9995" y1="56.0032" x2="179.9995" y2="3.212955e-03">
		<stop  offset="0" style="stop-color:#010101"/>
		<stop  offset="1" style="stop-color:#010101;stop-opacity:0"/>
	</linearGradient>
	<rect x="0" y="0" class="st1" width="360" height="56"/>
</g>
<path class="st2" d="M360,56C280,23.8,161.9,2.6,28.7,0H0v56L360,56L360,56z"/>
<g>
	<path class="st3" d="M20.8,34.5l-1.5,5.8h-4.8l6.2-22.7h6.1l6.3,22.7h-5l-1.6-5.8H20.8z M26,30.7l-1.3-4.8c-0.4-1.3-0.7-3-1-4.4
		h-0.1c-0.3,1.3-0.6,3.1-0.9,4.4l-1.2,4.8H26z"/>
	<path class="st3" d="M35.9,40.4V17.7h5.4l4.2,8.3c1.2,2.4,2.4,5.2,3.3,7.8h0.1c-0.3-3-0.4-6.1-0.4-9.5v-6.6h4.2v22.7h-4.8l-4.4-8.8
		c-1.2-2.4-2.5-5.4-3.5-8l-0.1,0c0.1,3,0.2,6.2,0.2,9.9v6.8H35.9z"/>
	<path class="st3" d="M56.8,18c1.7-0.3,3.9-0.5,6.2-0.5c3.9,0,6.4,0.8,8.4,2.4c2.1,1.8,3.5,4.5,3.5,8.5c0,4.3-1.4,7.3-3.4,9.2
		c-2.2,2-5.4,2.9-9.4,2.9c-2.4,0-4.1-0.2-5.2-0.3V18z M61.4,36.5c0.4,0.1,1,0.1,1.6,0.1c4.2,0,6.9-2.5,6.9-7.9
		c0-4.7-2.5-7.2-6.4-7.2c-1,0-1.7,0.1-2.1,0.2V36.5z"/>
	<path class="st3" d="M90,30.8h-7.5v5.4h8.4v4.2h-13V17.7h12.6v4.2h-8v4.7H90V30.8z"/>
	<path class="st3" d="M94.1,18c1.5-0.3,3.7-0.5,6.1-0.5c3,0,5.1,0.5,6.6,1.8c1.2,1.1,1.9,2.7,1.9,4.7c0,2.9-1.8,4.9-3.6,5.6v0.1
		c1.4,0.6,2.2,2.2,2.7,4.2c0.6,2.6,1.3,5.5,1.7,6.4h-4.7c-0.3-0.6-0.8-2.5-1.4-5.3c-0.5-2.8-1.4-3.6-3.3-3.6h-1.4v8.9h-4.6V18z
		 M98.6,27.7h1.8c2.3,0,3.7-1.3,3.7-3.3c0-2.1-1.3-3.1-3.4-3.2c-1.1,0-1.8,0.1-2.1,0.2V27.7z"/>
	<path class="st3" d="M112.2,35.1c1.2,0.7,3.1,1.4,5.1,1.4c2.1,0,3.2-1,3.2-2.5c0-1.4-1-2.2-3.4-3.2c-3.4-1.3-5.6-3.4-5.6-6.7
		c0-3.9,2.9-6.8,7.7-6.8c2.3,0,4,0.5,5.2,1.1l-1,4.1c-0.8-0.4-2.3-1.1-4.3-1.1s-3,1-3,2.2c0,1.4,1.2,2.1,3.8,3.2
		c3.6,1.5,5.3,3.6,5.3,6.8c0,3.8-2.6,7-8.2,7c-2.3,0-4.6-0.7-5.8-1.4L112.2,35.1z"/>
	<path class="st3" d="M147.1,28.8c0,7.4-4.1,11.9-10,11.9c-6.1,0-9.6-5.1-9.6-11.5c0-6.8,3.9-11.9,9.9-11.9
		C143.6,17.3,147.1,22.5,147.1,28.8z M132.3,29.1c0,4.4,1.9,7.6,5,7.6c3.1,0,4.9-3.3,4.9-7.7c0-4.1-1.8-7.6-4.9-7.6
		C134.1,21.4,132.3,24.7,132.3,29.1z"/>
	<path class="st3" d="M150.1,40.4V17.7h5.4l4.2,8.3c1.2,2.4,2.4,5.2,3.3,7.8h0.1c-0.3-3-0.4-6.1-0.4-9.5v-6.6h4.2v22.7h-4.8
		l-4.4-8.8c-1.2-2.4-2.5-5.4-3.5-8l-0.1,0c0.1,3,0.2,6.2,0.2,9.9v6.8H150.1z"/>
	<path class="st3" d="M192.1,39.7c-0.8,0.5-2.8,1-5.2,1c-7.1,0-10.7-4.9-10.7-11.3c0-7.7,5-12.1,11.1-12.1c2.4,0,4.2,0.5,5,1
		l-0.9,4.1c-0.9-0.4-2.2-0.8-3.9-0.8c-3.7,0-6.5,2.5-6.5,7.5c0,4.5,2.4,7.4,6.5,7.4c1.4,0,2.9-0.3,3.8-0.7L192.1,39.7z"/>
	<path class="st3" d="M212.9,28.8c0,7.4-4.1,11.9-10,11.9c-6.1,0-9.6-5.1-9.6-11.5c0-6.8,3.9-11.9,9.9-11.9
		C209.5,17.3,212.9,22.5,212.9,28.8z M198.2,29.1c0,4.4,1.9,7.6,5,7.6c3.1,0,4.9-3.3,4.9-7.7c0-4.1-1.8-7.6-4.9-7.6
		C200,21.4,198.2,24.7,198.2,29.1z"/>
	<path class="st3" d="M220.6,17.7v13.1c0,3.9,1.3,5.9,3.7,5.9c2.4,0,3.8-1.9,3.8-5.9V17.7h4.6v12.7c0,7-3.2,10.3-8.5,10.3
		c-5.1,0-8.2-3.2-8.2-10.4V17.7H220.6z"/>
	<path class="st3" d="M236.6,40.4V17.7h5.4l4.2,8.3c1.2,2.4,2.4,5.2,3.3,7.8h0.1c-0.3-3-0.4-6.1-0.4-9.5v-6.6h4.2v22.7h-4.8
		l-4.4-8.8c-1.2-2.4-2.5-5.4-3.5-8l-0.1,0c0.1,3,0.2,6.2,0.2,9.9v6.8H236.6z"/>
	<path class="st3" d="M261.4,22H256v-4.3h15.7V22h-5.6v18.4h-4.6V22z"/>
	<path class="st3" d="M279,40.4v-9.3l-6.5-13.4h5.3l2.1,5.5c0.6,1.6,1.1,2.9,1.6,4.3h0.1c0.5-1.4,0.9-2.7,1.5-4.3l2.1-5.5h5.2
		l-6.7,13.2v9.5H279z"/>
	<path class="st3" d="M287.1,44.4c0.9-3,1.8-6.5,2.2-9.6l4.7-0.3c-1,3.4-2.4,7-3.8,9.6L287.1,44.4z"/>
	<path class="st3" d="M305.8,22h-5.5v-4.3H316V22h-5.6v18.4h-4.6V22z"/>
	<path class="st3" d="M318.4,40.4V17.7h5.4l4.2,8.3c1.2,2.4,2.4,5.2,3.3,7.8h0.1c-0.3-3-0.4-6.1-0.4-9.5v-6.6h4.2v22.7h-4.8
		l-4.4-8.8c-1.2-2.4-2.5-5.4-3.5-8l-0.1,0c0.1,3,0.2,6.2,0.2,9.9v6.8H318.4z"/>
</g>
</svg>
