
<svg version="1.1" id="Layer_1" xmlns="http://www.w3.org/2000/svg" xmlns:xlink="http://www.w3.org/1999/xlink" x="0px" y="0px"
	 viewBox="0 0 360 56" style="enable-background:new 0 0 360 56;" xml:space="preserve">
<style type="text/css">
	.st0{fill:#2D368F;}
	.st1{opacity:8.000000e-02;fill:url(#SVGID_1_);}
	.st2{fill:#EB2227;}
	.st3{fill:#FFFFFF;stroke:#FFFFFF;stroke-width:0.475;stroke-miterlimit:10;}
	.st4{fill:#FFFFFF;}
</style>
<g>
	<rect x="0" y="0" class="st0" width="360" height="56"/>
	<linearGradient id="SVGID_1_" gradientUnits="userSpaceOnUse" x1="179.9995" y1="56.0032" x2="179.9995" y2="3.212955e-03">
		<stop  offset="0" style="stop-color:#010101"/>
		<stop  offset="1" style="stop-color:#010101;stop-opacity:0"/>
	</linearGradient>
	<rect x="0" y="0" class="st1" width="360" height="56"/>
</g>
<path class="st2" d="M360,56C280,23.8,161.9,2.6,28.7,0H0v56L360,56L360,56z"/>
<g>
	<g>
		<path class="st3" d="M33.5,36.4c0,1.3,0.2,2,0.7,2.3c0.1,0.1,0.1,0.3,0,0.4c-0.4,0-0.9,0.1-1.5,0.3c-1.6,0.4-3.8,0.8-5.4,0.8
			c-3.6,0-6.9-1-9.3-3.5c-1.8-1.9-2.8-4.4-2.8-7.2c0-2.7,0.9-5.4,2.7-7.5c2-2.2,5-3.7,9.6-3.7c1.7,0,3.3,0.3,3.9,0.5
			c0.6,0.1,1.5,0.3,1.9,0.3c0,1,0.2,2.7,0.5,4.6c-0.1,0.3-0.6,0.3-0.8,0.1c-0.9-3.4-3.1-4.5-6.2-4.5c-5.9,0-8.5,4.4-8.5,9.1
			c0,6.1,3,10.9,9.1,10.9c1.9,0,3-0.4,3.3-1c0.2-0.2,0.3-0.8,0.3-1.8v-1.3c0-2.7-0.1-2.9-2-3.1l-1.3-0.2c-0.2-0.1-0.2-0.7,0-0.8
			c0.9,0.1,2.6,0.1,4.3,0.1c1.2,0,2.2,0,3.2-0.1c0.2,0.1,0.2,0.6,0,0.8l-0.5,0.1c-1.3,0.2-1.3,1-1.3,2.7V36.4z"/>
		<path class="st3" d="M37.9,29.4c0-6.3,4.6-11.2,10.8-11.2c7,0,10.6,5.3,10.6,10.9c0,6.4-4.7,11.1-10.6,11.1
			C42,40.1,37.9,35.1,37.9,29.4z M56.2,30c0-5.2-2.2-10.9-8-10.9c-3.2,0-7.3,2.3-7.3,9.2c0,4.7,2.2,10.8,8.2,10.8
			C52.7,39.1,56.2,36.3,56.2,30z"/>
	</g>
	<g>
		<circle class="st4" cx="73.5" cy="29.2" r="12.1"/>
	</g>
	<g>
		<circle class="st0" cx="73.5" cy="29.2" r="10.4"/>
	</g>
	<polygon class="st4" points="68.6,23.8 70.2,25.1 72.2,24.6 71.4,26.5 72.4,28.2 70.4,28 69.1,29.6 68.7,27.6 66.8,26.8 68.5,25.8 
			"/>
	<polygon class="st4" points="80.8,27.1 78.9,27.8 78.3,29.8 77.1,28.2 75.1,28.2 76.2,26.6 75.5,24.6 77.5,25.2 79.1,24 79.1,26 	
		"/>
	<polygon class="st4" points="71.8,36.8 72.2,34.8 70.8,33.4 72.8,33.1 73.7,31.3 74.6,33.1 76.6,33.5 75.1,34.9 75.4,36.9 
		73.6,35.9 	"/>
</g>
<g>
	<path class="st3" d="M87.1,22.8c0-2.2-0.2-2.9-1.4-3.1L85,19.6c-0.2-0.2-0.3-0.7,0-0.8c2.6-0.2,5-0.3,7.6-0.3c2.6,0,4.7,0.2,6.7,1
		c4.1,1.6,6.2,5.2,6.2,9.4c0,4-1.9,7.5-5.3,9.5c-2,1.1-4.5,1.5-6.8,1.5c-1.9,0-3.9-0.3-5-0.3c-1.3,0-2.4,0-3.8,0.1
		c-0.2-0.1-0.2-0.6-0.1-0.8l0.7-0.1c1.8-0.3,1.8-0.6,1.8-4V22.8z M89.6,34.1c0,1.7,0.1,2.7,0.6,3.5c0.7,1,1.8,1.3,3.7,1.3
		c5.9,0,8.5-4,8.5-9.9c0-3.5-1.6-9.4-9.6-9.4c-1.8,0-2.8,0.3-3,0.4c-0.2,0.2-0.3,1-0.3,2.4V34.1z"/>
	<path class="st3" d="M109,23.4c0-3.3-0.1-3.8-2-4l-0.8-0.1c-0.2-0.1-0.1-0.7,0.1-0.8c1.7,0.1,2.7,0.1,4,0.1c1.2,0,2.2,0,3.7-0.1
		c0.2,0.1,0.2,0.7,0.1,0.8l-0.7,0.1c-1.8,0.2-1.9,0.7-1.9,4v11c0,2,0.1,2.8,0.6,3.4c0.3,0.3,0.9,0.7,3.3,0.7c2.6,0,3.2-0.1,3.7-0.4
		c0.6-0.4,1.4-1.5,2-3.1c0.2-0.2,0.8,0,0.8,0.2c0,0.3-0.9,3.6-1.3,4.4c-1.6-0.1-4.4-0.1-7.6-0.1h-2.8c-1.3,0-2.3,0-4,0.1
		c-0.2-0.1-0.2-0.6-0.1-0.8l0.9-0.1c1.8-0.2,1.8-0.6,1.8-4V23.4z"/>
	<path class="st3" d="M124.9,23.4c0-3.3-0.1-3.8-1.9-4l-0.5-0.1c-0.2-0.1-0.1-0.7,0.1-0.8c1.3,0.1,2.3,0.1,3.6,0.1h5.7
		c1.9,0,3.7,0,4.1-0.1c0.2,0.5,0.4,2.8,0.5,4.2c-0.1,0.2-0.6,0.3-0.8,0.1c-0.5-1.5-0.7-2.6-2.3-3c-0.6-0.2-1.6-0.2-2.9-0.2h-2.2
		c-0.9,0-0.9,0.1-0.9,1.3v6.3c0,0.9,0.1,0.9,1,0.9h1.8c1.3,0,2.2-0.1,2.6-0.2c0.4-0.1,0.6-0.3,0.7-1.1l0.2-1.3
		c0.2-0.2,0.7-0.2,0.8,0c0,0.8-0.1,2-0.1,3.2c0,1.1,0.1,2.3,0.1,3c-0.1,0.2-0.6,0.2-0.8,0l-0.3-1.2c-0.1-0.6-0.3-1-0.9-1.2
		c-0.4-0.1-1.2-0.2-2.3-0.2h-1.8c-0.9,0-1,0-1,0.9v4.5c0,1.7,0.1,2.8,0.6,3.3c0.4,0.4,1,0.7,3.7,0.7c2.3,0,3.2-0.1,3.9-0.5
		c0.5-0.3,1.4-1.4,2.2-3.1c0.2-0.2,0.6-0.1,0.8,0.2c-0.2,1.1-1,3.6-1.4,4.4c-2.7-0.1-5.4-0.1-8.2-0.1h-2.7c-1.3,0-2.3,0-4.1,0.1
		c-0.2-0.1-0.2-0.6-0.1-0.8l1-0.1c1.7-0.2,1.9-0.6,1.9-4V23.4z"/>
	<path class="st3" d="M149.4,34.9c0,3.3,0.1,3.8,1.8,4l1,0.1c0.2,0.1,0.1,0.7-0.1,0.8c-1.7-0.1-2.8-0.1-4-0.1s-2.3,0-4.2,0.1
		c-0.2-0.1-0.2-0.6,0-0.8l1.1-0.1c1.7-0.2,1.9-0.6,1.9-4V20.7c0-1,0-1-0.9-1h-1.7c-1.3,0-3,0.1-3.7,0.8c-0.7,0.7-1,1.4-1.4,2.2
		c-0.2,0.2-0.7,0-0.8-0.2c0.5-1.4,0.9-3.5,1.2-4.7c0.1-0.1,0.5-0.1,0.6,0c0.2,1,1.2,1,2.6,1H155c1.6,0,1.9-0.1,2.4-0.9
		c0.2-0.1,0.5,0,0.5,0.1c-0.3,1.3-0.5,3.9-0.5,4.8c-0.1,0.3-0.6,0.3-0.8,0.1c-0.1-0.8-0.3-2-0.8-2.3c-0.7-0.5-1.9-0.8-3.5-0.8h-2.2
		c-0.9,0-0.9,0-0.9,1.1V34.9z"/>
	<path class="st3" d="M170.3,34.9c0,3.3,0.1,3.8,1.8,4l1,0.1c0.2,0.1,0.1,0.7-0.1,0.8c-1.7-0.1-2.8-0.1-4-0.1s-2.3,0-4.2,0.1
		c-0.2-0.1-0.2-0.6,0-0.8l1.1-0.1c1.7-0.2,1.9-0.6,1.9-4V20.7c0-1,0-1-0.9-1h-1.7c-1.3,0-3,0.1-3.7,0.8c-0.7,0.7-1,1.4-1.4,2.2
		c-0.2,0.2-0.7,0-0.8-0.2c0.5-1.4,0.9-3.5,1.2-4.7c0.1-0.1,0.5-0.1,0.6,0c0.2,1,1.2,1,2.6,1H176c1.6,0,1.9-0.1,2.4-0.9
		c0.2-0.1,0.5,0,0.5,0.1c-0.3,1.3-0.5,3.9-0.5,4.8c-0.1,0.3-0.6,0.3-0.8,0.1c-0.1-0.8-0.3-2-0.8-2.3c-0.7-0.5-1.9-0.8-3.5-0.8h-2.2
		c-0.9,0-0.9,0-0.9,1.1V34.9z"/>
	<path class="st3" d="M184.5,40.1c-2.6,0-4.2-0.8-4.7-1.2c-0.4-0.7-0.8-3-0.8-4.4c0.2-0.2,0.6-0.3,0.7-0.1c0.5,1.6,1.7,4.7,5.2,4.7
		c2.6,0,3.8-1.7,3.8-3.6c0-1.4-0.3-3-2.5-4.4l-2.9-2c-1.5-1-3.3-2.9-3.3-5.5c0-3,2.2-5.5,6.2-5.5c0.9,0,2,0.2,2.8,0.4
		c0.4,0.1,0.8,0.2,1.1,0.2c0.3,0.8,0.5,2.5,0.5,3.9c-0.1,0.2-0.6,0.3-0.8,0.1c-0.4-1.5-1.2-3.6-4.1-3.6c-3,0-3.6,2.1-3.6,3.5
		c0,1.8,1.5,3.1,2.6,3.9l2.4,1.6c1.9,1.2,3.8,3.1,3.8,6.1C191,37.7,188.5,40.1,184.5,40.1z"/>
	<path class="st3" d="M197.1,22c-0.7-1.8-1.2-2.4-2.5-2.6l-0.5-0.1c-0.2-0.2-0.2-0.6,0.1-0.8c0.9,0.1,1.9,0.1,3.2,0.1
		c1.3,0,2.4,0,3.7-0.1c0.2,0.1,0.3,0.6,0.1,0.8l-0.5,0.1c-1.2,0.2-1.4,0.3-1.4,0.6c0.1,0.3,0.6,2,1.5,4.4c1.4,3.7,2.8,7.3,4.3,10.9
		c0.9-2.1,2.2-5.4,2.9-7c0.9-2.2,2.3-5.7,2.8-7.1c0.2-0.7,0.3-1,0.3-1.2c0-0.2-0.3-0.5-1.4-0.6l-0.5-0.1c-0.2-0.2-0.2-0.7,0.1-0.8
		c0.9,0.1,2,0.1,3.2,0.1c1,0,1.9,0,3-0.1c0.2,0.1,0.2,0.6,0.1,0.8l-0.9,0.1c-0.7,0.1-1.2,0.4-1.6,1.1c-0.9,1.5-2,4.1-3.4,7.3
		l-1.6,3.9c-1.2,2.9-2.6,6.6-3.2,8.3c-0.1,0.1-0.2,0.1-0.3,0.1c-0.2,0-0.3,0-0.5-0.1c-0.3-1.3-0.9-2.9-1.4-4.2L197.1,22z"/>
	<path class="st3" d="M219.8,23.5c0-3.4-0.1-3.9-1.9-4.1l-0.8-0.1c-0.2-0.1-0.1-0.7,0.1-0.8c1.5,0.1,2.6,0.1,3.8,0.1
		c1.2,0,2.2,0,3.8-0.1c0.2,0.1,0.2,0.7,0.1,0.8l-0.8,0.1c-1.8,0.2-1.9,0.7-1.9,4.1v11.3c0,3.4,0.1,3.8,1.9,4l0.8,0.1
		c0.2,0.1,0.1,0.7-0.1,0.8c-1.5-0.1-2.6-0.1-3.8-0.1c-1.3,0-2.3,0-3.8,0.1c-0.2-0.1-0.2-0.6-0.1-0.8l0.8-0.1c1.8-0.2,1.9-0.7,1.9-4
		V23.5z"/>
	<path class="st3" d="M228.5,23.4c0-3.3-0.1-3.8-2-4l-0.8-0.1c-0.2-0.1-0.1-0.7,0.1-0.8c1.7,0.1,2.7,0.1,4,0.1c1.2,0,2.2,0,3.7-0.1
		c0.2,0.1,0.2,0.7,0.1,0.8l-0.7,0.1c-1.8,0.2-1.9,0.7-1.9,4v11c0,2,0.1,2.8,0.6,3.4c0.3,0.3,0.9,0.7,3.3,0.7c2.6,0,3.2-0.1,3.7-0.4
		c0.6-0.4,1.4-1.5,2-3.1c0.2-0.2,0.8,0,0.8,0.2c0,0.3-0.9,3.6-1.3,4.4c-1.6-0.1-4.4-0.1-7.6-0.1h-2.8c-1.3,0-2.2,0-4,0.1
		c-0.2-0.1-0.2-0.6-0.1-0.8l0.9-0.1c1.8-0.2,1.8-0.6,1.8-4V23.4z"/>
	<path class="st3" d="M245.3,23.4c0-3.3-0.1-3.8-2-4l-0.8-0.1c-0.2-0.1-0.1-0.7,0.1-0.8c1.7,0.1,2.7,0.1,4,0.1c1.2,0,2.2,0,3.7-0.1
		c0.2,0.1,0.2,0.7,0.1,0.8l-0.7,0.1c-1.8,0.2-1.9,0.7-1.9,4v11c0,2,0.1,2.8,0.6,3.4c0.3,0.3,0.9,0.7,3.3,0.7c2.6,0,3.2-0.1,3.7-0.4
		c0.6-0.4,1.4-1.5,2-3.1c0.2-0.2,0.8,0,0.8,0.2c0,0.3-0.9,3.6-1.3,4.4c-1.6-0.1-4.4-0.1-7.6-0.1h-2.8c-1.3,0-2.3,0-4,0.1
		c-0.2-0.1-0.2-0.6-0.1-0.8l0.9-0.1c1.8-0.2,1.8-0.6,1.8-4V23.4z"/>
	<path class="st3" d="M262.1,23.4c0-3.3-0.1-3.8-1.9-4l-0.5-0.1c-0.2-0.1-0.1-0.7,0.1-0.8c1.3,0.1,2.3,0.1,3.6,0.1h5.7
		c1.9,0,3.7,0,4.1-0.1c0.2,0.5,0.4,2.8,0.5,4.2c-0.1,0.2-0.6,0.3-0.8,0.1c-0.5-1.5-0.7-2.6-2.3-3c-0.6-0.2-1.6-0.2-2.9-0.2h-2.2
		c-0.9,0-0.9,0.1-0.9,1.3v6.3c0,0.9,0.1,0.9,1,0.9h1.8c1.3,0,2.2-0.1,2.6-0.2c0.4-0.1,0.6-0.3,0.7-1.1l0.2-1.3
		c0.2-0.2,0.7-0.2,0.8,0c0,0.8-0.1,2-0.1,3.2c0,1.1,0.1,2.3,0.1,3c-0.1,0.2-0.6,0.2-0.8,0l-0.3-1.2c-0.1-0.6-0.3-1-0.9-1.2
		c-0.4-0.1-1.2-0.2-2.3-0.2h-1.8c-0.9,0-1,0-1,0.9v4.5c0,1.7,0.1,2.8,0.6,3.3c0.4,0.4,1,0.7,3.7,0.7c2.3,0,3.2-0.1,3.9-0.5
		c0.5-0.3,1.4-1.4,2.2-3.1c0.2-0.2,0.6-0.1,0.8,0.2c-0.2,1.1-1,3.6-1.4,4.4c-2.7-0.1-5.4-0.1-8.2-0.1h-2.7c-1.3,0-2.3,0-4.1,0.1
		c-0.2-0.1-0.2-0.6-0.1-0.8l1-0.1c1.7-0.2,1.9-0.6,1.9-4V23.4z"/>
	<path class="st3" d="M282.2,38.9c0,2.5-1.8,3.9-4,4.6c-0.3-0.1-0.4-0.6-0.2-0.8c0.9-0.3,2.5-1.1,2.5-2.8c0-1.3-1.5-1.7-1.7-1.8
		c-0.4-0.2-0.5-0.5-0.5-0.9c0-0.7,0.5-1.4,1.5-1.4C280.8,35.7,282.2,36.8,282.2,38.9z"/>
	<path class="st3" d="M303.1,34.9c0,3.3,0.1,3.8,1.8,4l1,0.1c0.2,0.1,0.1,0.7-0.1,0.8c-1.7-0.1-2.8-0.1-4-0.1s-2.3,0-4.2,0.1
		c-0.2-0.1-0.2-0.6,0-0.8l1.1-0.1c1.7-0.2,1.9-0.6,1.9-4V20.7c0-1,0-1-0.9-1H298c-1.3,0-3,0.1-3.7,0.8c-0.7,0.7-1,1.4-1.4,2.2
		c-0.2,0.2-0.7,0-0.8-0.2c0.5-1.4,0.9-3.5,1.2-4.7c0.1-0.1,0.5-0.1,0.6,0c0.2,1,1.2,1,2.6,1h12.3c1.6,0,1.9-0.1,2.4-0.9
		c0.2-0.1,0.5,0,0.5,0.1c-0.3,1.3-0.5,3.9-0.5,4.8c-0.1,0.3-0.6,0.3-0.8,0.1c-0.1-0.8-0.3-2-0.8-2.3c-0.7-0.5-1.9-0.8-3.5-0.8H304
		c-0.9,0-0.9,0-0.9,1.1V34.9z"/>
	<path class="st3" d="M333.7,34.2c0,1,0,4.7,0.1,5.6c-0.1,0.2-0.2,0.3-0.6,0.3c-0.4-0.5-1.2-1.6-3.9-4.8l-7.1-8.4
		c-0.8-1-2.9-3.6-3.5-4.3h-0.1c-0.1,0.4-0.2,1.1-0.2,2.1v6.9c0,1.5,0.1,5.6,0.5,6.6c0.2,0.3,0.8,0.5,1.6,0.6l0.9,0.1
		c0.2,0.3,0.2,0.6-0.1,0.8c-1.4-0.1-2.4-0.1-3.6-0.1c-1.3,0-2.1,0-3.2,0.1c-0.2-0.2-0.2-0.6-0.1-0.8l0.8-0.1
		c0.7-0.1,1.2-0.3,1.3-0.6c0.4-1.1,0.4-5,0.4-6.5v-9.2c0-0.9,0-1.6-0.7-2.3c-0.4-0.4-1.2-0.7-1.9-0.8l-0.5-0.1
		c-0.2-0.2-0.2-0.7,0.1-0.8c1.3,0.1,2.9,0.1,3.4,0.1c0.5,0,1,0,1.4-0.1c0.6,1.6,4.2,5.8,5.2,7l3,3.5c2.1,2.5,3.6,4.2,5,5.7h0.1
		c0.1-0.2,0.1-0.7,0.1-1.3v-6.8c0-1.5,0-5.6-0.6-6.6c-0.2-0.3-0.7-0.5-1.9-0.6l-0.5-0.1c-0.2-0.2-0.2-0.7,0.1-0.8
		c1.4,0.1,2.4,0.1,3.6,0.1c1.3,0,2.1,0,3.1-0.1c0.2,0.2,0.2,0.6,0.1,0.8l-0.4,0.1c-1,0.2-1.6,0.4-1.7,0.7c-0.5,1.1-0.5,5.1-0.5,6.5
		V34.2z"/>
</g>
</svg>
