<?xml version="1.0" encoding="utf-8"?>
<!-- Generator: Adobe Illustrator 23.0.3, SVG Export Plug-In . SVG Version: 6.00 Build 0)  -->
<svg version="1.1" id="Layer_1" xmlns="http://www.w3.org/2000/svg" xmlns:xlink="http://www.w3.org/1999/xlink" x="0px" y="0px"
	 viewBox="0 0 360 56" style="enable-background:new 0 0 360 56;" xml:space="preserve">
<style type="text/css">
	.st0{fill:#F1B337;}
	.st1{fill:#FFFFFF;}
	.st2{fill:#204667;}
	.st3{fill:#231F20;}
</style>
<rect class="st0" width="360" height="56"/>
<path class="st1" d="M360,56C280,23.8,161.9,2.6,28.7,0H0v56H360L360,56z"/>
<g>
	<path class="st2" d="M21.4,41.2V18h10.8c4.9,0,9.9,1.9,9.9,8.2c0,3.6-1.7,5.8-4,6.9l6,8.1h-8.4l-4.8-6.9h-1.8v6.9H21.4z M29.1,28.6
		H32c1.5,0,2.4-0.9,2.4-2.2s-0.9-2.2-2.4-2.2h-2.9V28.6z"/>
	<path class="st2" d="M51.8,24.8c5,0,9.2,2.8,9.2,8.5s-4.2,8.5-9.2,8.5s-9.1-2.8-9.1-8.5S46.8,24.8,51.8,24.8z M51.8,30.6
		c-1.7,0-2.3,1.2-2.3,2.7s0.6,2.7,2.3,2.7c1.8,0,2.4-1.2,2.4-2.7S53.5,30.6,51.8,30.6z"/>
	<path class="st2" d="M79.3,37.1c0.2,0,0.4,0,0.6-0.1v4.1c-0.9,0.4-2.4,0.6-3.5,0.6c-1.7,0-3.1-0.5-4-1.7c-1.4,1.2-3.1,1.8-5.3,1.8
		c-3,0-5.5-1.6-5.5-4.8c0-4,3.7-5.2,7-5.2c0.9,0,2.2,0.1,3.1,0.3v-0.4c0-1.1-1-1.8-3.1-1.8c-2,0-3.9,0.5-5.7,1.1v-5.2
		c1.6-0.5,4.2-1.1,6.5-1.1c5.5,0,9,1.6,9,7.7v3.7C78.4,36.8,78.8,37.1,79.3,37.1z M68.4,36.4c0,0.8,0.7,1.3,1.6,1.3
		c0.7,0,1.3-0.2,1.8-0.5v-2C71.4,35,70.9,35,70.4,35C69.4,35,68.4,35.3,68.4,36.4z"/>
	<path class="st2" d="M92.2,24.8c4.4,0,6.2,3.1,6.2,6.2v10.3h-7v-9.1c0-1.1-0.7-1.5-1.5-1.5c-0.8,0-1.4,0.4-1.7,0.8v9.8h-7V25.3h6.1
		v1.6C88.7,25.5,90.3,24.8,92.2,24.8z"/>
	<path class="st2" d="M108.4,24.8c7.2,0,8.9,5.5,8,10.1h-9.8c0.6,1.4,2.5,2,4.5,2c1.7,0,3.2-0.2,4.6-0.6v4.7
		c-1.6,0.5-3.3,0.8-5.8,0.8c-5.1,0-10-2.5-10-8.6C99.8,27,104.8,24.8,108.4,24.8z M108.7,29.4c-1.4,0-2.3,1-2.3,2.3h4.2
		C110.8,30.7,110.3,29.4,108.7,29.4z"/>
	<path class="st2" d="M135.9,17.5c2.4,0,4.8,0.5,6.8,1.4v6.8c-1.3-0.9-3.4-1.6-5.5-1.6c-3.2,0-6.2,1.6-6.2,5.7c0,3.6,3,5.2,6,5.2
		c2.4,0,4.6-0.6,5.8-1.7v7c-2.1,0.9-4.3,1.4-6.8,1.4c-6.6,0-12.9-3.4-12.9-11.9C123.2,21.1,129.6,17.5,135.9,17.5z"/>
	<path class="st2" d="M153.3,24.8c5,0,9.2,2.8,9.2,8.5s-4.2,8.5-9.2,8.5s-9.1-2.8-9.1-8.5S148.3,24.8,153.3,24.8z M153.3,30.6
		c-1.7,0-2.3,1.2-2.3,2.7s0.6,2.7,2.3,2.7c1.8,0,2.4-1.2,2.4-2.7S155.1,30.6,153.3,30.6z"/>
	<path class="st2" d="M181,25.3v15.9h-6.1v-1.6c-1.4,1.4-3,2.1-4.9,2.1c-4.4,0-6.1-3.1-6.1-6.2V25.3h7v9.1c0,1.1,0.6,1.5,1.5,1.5
		c0.8,0,1.4-0.4,1.7-0.8v-9.8H181z"/>
	<path class="st2" d="M194.4,24.8c4.4,0,6.2,3.1,6.2,6.2v10.3h-7v-9.1c0-1.1-0.7-1.5-1.5-1.5c-0.8,0-1.4,0.4-1.7,0.8v9.8h-7V25.3
		h6.1v1.6C190.9,25.5,192.4,24.8,194.4,24.8z"/>
	<path class="st2" d="M210.8,19.4v5.9h3.5v5.6h-3.5v3.7c0,1.1,0.8,1.5,1.9,1.5c0.7,0,1.3-0.1,1.9-0.3v5.4c-1.5,0.4-2.9,0.6-4.5,0.6
		c-3.1,0-6.3-1.2-6.3-6.1v-4.8h-2.2v-5.6h2.2v-4.3L210.8,19.4z"/>
	<path class="st2" d="M227.9,25.3h7.1l-6.1,16.9c-1.9,5.3-5.2,6.8-8.5,6.8c-1.3,0-2.4-0.2-3.5-0.6v-5.6c0.8,0.2,1.5,0.3,2.4,0.3
		c1.2,0,2.3-0.5,2.9-1.8l-7.3-16h7.2l3.3,8.7L227.9,25.3z"/>
</g>
<g>
	<g>
		<path class="st3" d="M248.3,24.2c5.5,0,8.2,3.6,8.2,8.6c0,5-2.7,8.6-8.2,8.6h-5.1V24.2H248.3z M248.3,26.2H245v13.3h3.2
			c4.2,0,6.3-2.5,6.3-6.7S252.5,26.2,248.3,26.2z"/>
		<path class="st3" d="M260.1,27.1c-0.6,0-1.2-0.4-1.2-1.3c0-0.8,0.5-1.3,1.2-1.3c0.6,0,1.2,0.4,1.2,1.3
			C261.2,26.7,260.7,27.1,260.1,27.1z M259.2,41.5V29.7h1.8v11.8H259.2z"/>
		<path class="st3" d="M269.7,29.4c2.6,0,4.4,1.9,4.4,4.8v7.3h-1.8v-7.1c0-2.2-1.2-3.3-2.9-3.3c-1.6,0-2.8,1.2-3.5,2.4v7.9h-1.8
			V29.7h1.6v1.8C266.6,30.4,268,29.4,269.7,29.4z"/>
		<path class="st3" d="M278.3,27.1c-0.6,0-1.2-0.4-1.2-1.3c0-0.8,0.5-1.3,1.2-1.3c0.6,0,1.2,0.4,1.2,1.3
			C279.4,26.7,278.9,27.1,278.3,27.1z M277.4,41.5V29.7h1.8v11.8H277.4z"/>
		<path class="st3" d="M287.9,29.4c2.6,0,4.4,1.9,4.4,4.8v7.3h-1.8v-7.1c0-2.2-1.2-3.3-2.9-3.3c-1.6,0-2.8,1.2-3.5,2.4v7.9h-1.8
			V29.7h1.6v1.8C284.8,30.4,286.2,29.4,287.9,29.4z"/>
		<path class="st3" d="M300.1,29.4c2,0,3.4,1.1,4.3,2.3v-2h1.6v11.8c0,4.1-2.9,5.7-5.8,5.7c-1.6,0-3.1-0.4-4.3-1.1v-1.9
			c1.3,0.8,2.6,1.2,4.1,1.2c2.3,0,4.3-1,4.3-3.9v-1.8c-0.8,1.1-2.1,2.1-4.1,2.1c-3,0-5.3-2.7-5.3-6.2S297.1,29.4,300.1,29.4z
			 M300.3,31.2c-2.1,0-3.7,1.7-3.7,4.4s1.7,4.4,3.7,4.4c1.9,0,3.3-1.3,3.9-2.7v-3.2C303.6,32.6,302.2,31.2,300.3,31.2z"/>
	</g>
</g>
</svg>
